<?xml version="1.0" encoding="utf-8"?>
<!-- Generator: Adobe Illustrator 24.0.1, SVG Export Plug-In . SVG Version: 6.00 Build 0)  -->
<svg version="1.1" id="Layer_1" xmlns="http://www.w3.org/2000/svg" xmlns:xlink="http://www.w3.org/1999/xlink" x="0px" y="0px"
	 viewBox="0 0 32 32" style="enable-background:new 0 0 32 32;" xml:space="preserve">
<style type="text/css">
	.st0{fill:#323232;}
	.st1{fill:#FFFFFF;}
	.st2{fill:#D6BA74;}
</style>
<circle class="st0" cx="16" cy="16" r="16"/>
<g>
	<path class="st1" d="M21.5570011,20.4053516L18.9832439,18.70471l0.1709766,0.4331398
		c0.089735,0.2072811,0.1362782,0.4306774,0.1367817,0.6565475c-0.0143909,0.2578316-0.1147099,0.503418-0.2849598,0.6975822
		c-0.2192116,0.2580566-0.5493298,0.3946857-0.886795,0.3670292h-0.2462063v0.2735615h4.6893044
		C22.2403603,20.8725128,21.9047699,20.6297646,21.5570011,20.4053516z M19.3160763,8.9453974
		c-0.6037045,0.1897831-1.131937,0.565609-1.5091476,1.0737314c-0.3016357,0.3506794-0.4745426,0.7938089-0.4901295,1.2561035
		c-0.0077114,0.3739204,0.0826778,0.7433329,0.2621613,1.0714493c0.2553234,0.4741745,0.809288,0.982542,1.6687279,1.529665
		l3.3009758,2.1429005L19.3160763,8.9453974z M15.8965559,1.4612072h-0.2462063
		c-0.0562305,0.5835977-0.512166,1.7766311-1.3678083,3.579097L7.9723868,19.32934
		c-0.2367601,0.4671688-0.5960889,0.8611698-1.0395336,1.1398411c-0.3748622,0.2421532-0.8099065,0.3747959-1.2561045,0.3829842
		H5.4419436v0.2735615h5.8473802v-0.2735615h-0.2279682c-0.3405256,0.0261497-0.6734285-0.1098862-0.8981943-0.3670273
		c-0.1766672-0.1863441-0.2837429-0.4278641-0.3031979-0.6839046c0.005146-0.2297897,0.0514736-0.4567947,0.1367807-0.6702271
		l1.4270802-3.3511267h3.7318354c-0.2765837-0.3460674-0.5022774-0.7298956-0.6702271-1.1398401h-2.6056728l2.8154068-6.7204981
		l0.6109524,1.5547419c0.1775293-0.2143221,0.3727474-0.4133539,0.5835981-0.5949945
		c0.8036003-0.6757803,1.7866936-1.1027646,2.8290844-1.2287478L15.8965559,1.4612072z"/>
	<path class="st1" d="M24.4521942,17.2639523l-1.9149284-1.2447052l1.4817905,3.2553825
		c0.2324314,0.4834328,0.591713,0.8947144,1.0395336,1.189991c0.3809357,0.2522697,0.8265972,0.3892155,1.2834625,0.3943844
		h0.2462044v0.2735615h-4.0259151c0.2446022,0.2002468,0.4697666,0.4231262,0.6725044,0.6656647
		c0.3317051,0.3995018,0.5117397,0.9032745,0.5083675,1.4225235c0.0167007,0.855217-0.3607388,1.6706219-1.0235767,2.2112885
		c-0.6839046,0.5835972-1.6360512,0.8746376-2.8564396,0.8731174c-1.5661392,0-2.8017254-0.4559364-3.7022018-1.4065628
		c-0.875535-0.869709-1.3636723-2.0555344-1.3541307-3.2895756c-0.0003471-0.1464119,0.0095558-0.2926693,0.0296373-0.4376984
		h-0.2462063c-0.5888605,1.0188293-0.8817654,2.181757-0.8457623,3.3579674
		c-0.0109472,0.4280415,0.0530891,0.8546963,0.1892138,1.260664c0.4901295,0.5083675,1.2629414,0.911871,2.3093176,1.2150688
		c1.1131935,0.309763,2.2640533,0.4632092,3.4195194,0.4559364c2.1854553,0,3.9385319-0.5152073,5.2592239-1.5456238
		c1.3206997-1.0304127,1.981039-2.5099297,1.9810429-4.4385376C26.9089355,19.7412052,26.0920467,18.3369217,24.4521942,17.2639523z
		 M23.6611462,7.8374748c-1.2321949-0.1639285-2.4729614-0.2552748-3.7158794-0.273561
		c-0.4081593-0.0022821-0.8158932,0.0266786-1.2196312,0.086627l0.5904369,1.2948585
		c0.5123119-0.1612186,1.0473957-0.2382107,1.5843773-0.2279682c1.1656742,0,2.0995827,0.2864799,2.8017254,0.8594389
		c0.6890163,0.552578,1.0782394,1.3968782,1.0509319,2.2796803h0.2735615l0.355629-4.0190754H23.6611462z"/>
	<rect x="4.9312944" y="23.6174202" class="st2" width="6.4378161" height="2.1155429"/>
</g>
<g>
</g>
<g>
</g>
<g>
</g>
<g>
</g>
<g>
</g>
<g>
</g>
<g>
</g>
<g>
</g>
<g>
</g>
<g>
</g>
<g>
</g>
<g>
</g>
<g>
</g>
<g>
</g>
<g>
</g>
</svg>
