<svg id="Layer_1" data-name="Layer 1" xmlns="http://www.w3.org/2000/svg" viewBox="0 0 195.59863 181.7236"><defs><style>.cls-1{isolation:isolate;}.cls-2{fill:#323232;}.cls-3{fill:#d6ba74;}</style></defs><title>03 Grey-GoldAccent</title><g class="cls-1"><g class="cls-1"><path class="cls-2" d="M18.72546,143.502H11.08435l-1.6748,3.708H8.37439l6.06006-13.17383h.95947L21.454,147.21H20.41882Zm-.35791-.80859-3.46289-7.60352-3.44384,7.60352Z" transform="translate(-2.29578 -4.45999)"/><path class="cls-2" d="M28.56775,134.90137v5.62793h7.02v.86523h-7.02V147.21h-.96V134.03613h8.8081v.86524Z" transform="translate(-2.29578 -4.45999)"/><path class="cls-2" d="M52.45056,146.34473V147.21H41.8363v-.67773l9.08985-11.63086h-8.977v-.86524H52.24353v.67774l-9.07129,11.63086Z" transform="translate(-2.29578 -4.45999)"/><path class="cls-2" d="M68.25916,146.34473V147.21H59.16882V134.03613h8.80811v.86524H60.12878v5.19433h7.02v.84766h-7.02v5.40137Z" transform="translate(-2.29578 -4.45999)"/><path class="cls-2" d="M75.52332,134.03613h.96v12.3086h7.58447V147.21H75.52332Z" transform="translate(-2.29578 -4.45999)"/><path class="cls-2" d="M99.60339,146.80566a5.3251,5.3251,0,0,1-2.042-1.28906l.43262-.71582a5.103,5.103,0,0,0,1.87256,1.19531,6.717,6.717,0,0,0,2.47509.46094,4.7266,4.7266,0,0,0,2.8418-.71484,2.21927,2.21927,0,0,0,.959-1.86328,1.94466,1.94466,0,0,0-.50782-1.41114,3.36091,3.36091,0,0,0-1.26074-.80957,17.37137,17.37137,0,0,0-2.03223-.584,19.44267,19.44267,0,0,1-2.32421-.69629,3.70071,3.70071,0,0,1-1.48682-1.04395,2.787,2.787,0,0,1-.61182-1.8916,3.21609,3.21609,0,0,1,.5083-1.75976,3.45149,3.45149,0,0,1,1.55274-1.27051,6.352,6.352,0,0,1,2.60644-.4707,7.36367,7.36367,0,0,1,2.145.32031,6.31028,6.31028,0,0,1,1.8252.86621l-.35742.77148a6.06759,6.06759,0,0,0-1.74024-.82812,6.55025,6.55025,0,0,0-1.87256-.28223,4.43535,4.43535,0,0,0-2.7666.7334,2.30181,2.30181,0,0,0-.94092,1.90137,1.94669,1.94669,0,0,0,.50782,1.41113,3.36278,3.36278,0,0,0,1.26123.80957,18.97411,18.97411,0,0,0,2.05127.60156,19.23907,19.23907,0,0,1,2.31445.69727,3.80705,3.80705,0,0,1,1.47754,1.02539,2.68875,2.68875,0,0,1,.61133,1.85352,3.121,3.121,0,0,1-.51758,1.75A3.51707,3.51707,0,0,1,104.995,146.834a6.55892,6.55892,0,0,1-2.63477.46973A7.67773,7.67773,0,0,1,99.60339,146.80566Z" transform="translate(-2.29578 -4.45999)"/><path class="cls-2" d="M123.21277,146.34473V147.21H114.122V134.03613h8.80859v.86524h-7.84863v5.19433h7.02051v.84766h-7.02051v5.40137Z" transform="translate(-2.29578 -4.45999)"/><path class="cls-2" d="M139.56726,146.34473V147.21h-9.09082V134.03613H139.285v.86524H131.4364v5.19433h7.02051v.84766H131.4364v5.40137Z" transform="translate(-2.29578 -4.45999)"/></g><g class="cls-1"><path class="cls-2" d="M146.85632,134.03613h5.21289a7.63206,7.63206,0,0,1,3.64161.84668,6.18831,6.18831,0,0,1,2.4746,2.34278,6.96352,6.96352,0,0,1,0,6.79394,6.18392,6.18392,0,0,1-2.4746,2.34375,7.63206,7.63206,0,0,1-3.64161.84668h-5.21289Zm5.1377,12.3086a6.88565,6.88565,0,0,0,3.21875-.72461,5.19064,5.19064,0,0,0,2.14453-2.02344,6.24853,6.24853,0,0,0,0-5.94727,5.18442,5.18442,0,0,0-2.14453-2.02343,6.88553,6.88553,0,0,0-3.21875-.72461h-4.17774v11.44336Z" transform="translate(-2.29578 -4.45999)"/></g><g class="cls-1"><path class="cls-2" d="M174.12488,143.502h-7.64063l-1.6748,3.708h-1.03516l6.05957-13.17383h.96L176.85339,147.21h-1.03515Zm-.35742-.80859-3.46289-7.60352-3.44434,7.60352Z" transform="translate(-2.29578 -4.45999)"/></g><g class="cls-1"><path class="cls-2" d="M184.87781,134.90137h-4.74219v-.86524h10.44531v.86524h-4.74316V147.21h-.96Z" transform="translate(-2.29578 -4.45999)"/></g><g class="cls-1"><path class="cls-2" d="M2.29578,153.47656h.96v13.17383h-.96Z" transform="translate(-2.29578 -4.45999)"/><path class="cls-2" d="M22.33923,153.47656v13.17383h-.79052l-8.977-11.44238v11.44238h-.96V153.47656h.80957l8.958,11.44239V153.47656Z" transform="translate(-2.29578 -4.45999)"/></g><g class="cls-1"><path class="cls-2" d="M32.77527,165.87891a6.39194,6.39194,0,0,1-2.44629-2.39063,7.00859,7.00859,0,0,1,0-6.85058,6.39632,6.39632,0,0,1,2.44629-2.38965,7.0456,7.0456,0,0,1,3.49121-.86621,7.307,7.307,0,0,1,2.63477.46191,5.42868,5.42868,0,0,1,2.05126,1.36426l-.602.62109a5.51616,5.51616,0,0,0-4.04638-1.5625,6.0942,6.0942,0,0,0-3.01123.75293,5.50646,5.50646,0,0,0-2.12647,2.08008,6.079,6.079,0,0,0,0,5.92773,5.50646,5.50646,0,0,0,2.12647,2.08008,6.0941,6.0941,0,0,0,3.01123.75293,5.52,5.52,0,0,0,4.04638-1.58105l.602.62109a5.51578,5.51578,0,0,1-2.06054,1.374,7.20586,7.20586,0,0,1-2.62549.46973A7.04511,7.04511,0,0,1,32.77527,165.87891Z" transform="translate(-2.29578 -4.45999)"/></g><g class="cls-1"><path class="cls-2" d="M49.745,165.86914a6.43427,6.43427,0,0,1-2.45606-2.39941,6.93916,6.93916,0,0,1,0-6.8125,6.43429,6.43429,0,0,1,2.45606-2.39942,7.46894,7.46894,0,0,1,7.001-.00976A6.38176,6.38176,0,0,1,59.202,156.6377a7.01194,7.01194,0,0,1,0,6.85058,6.37741,6.37741,0,0,1-2.45606,2.39063,7.47633,7.47633,0,0,1-7.001-.00977Zm6.49316-.76172a5.54756,5.54756,0,0,0,2.10742-2.08008,6.07895,6.07895,0,0,0,0-5.92773,5.54756,5.54756,0,0,0-2.10742-2.08008,6.34143,6.34143,0,0,0-5.99414,0,5.51887,5.51887,0,0,0-2.11719,2.08008,6.079,6.079,0,0,0,0,5.92773,5.51887,5.51887,0,0,0,2.11719,2.08008,6.34143,6.34143,0,0,0,5.99414,0Z" transform="translate(-2.29578 -4.45999)"/><path class="cls-2" d="M76.33777,166.65039l-3.14258-4.4043a9.51287,9.51287,0,0,1-1.28027.09473H68.15125v4.30957h-.96V153.47656h4.72364a5.90991,5.90991,0,0,1,3.8955,1.17578,4.01869,4.01869,0,0,1,1.41211,3.26563,4.01656,4.01656,0,0,1-3.08691,4.12109l3.29395,4.61133Zm-4.42285-5.15625a4.88852,4.88852,0,0,0,3.21875-.93164,3.70442,3.70442,0,0,0,0-5.28906,4.88846,4.88846,0,0,0-3.21875-.93164H68.15125v7.15234Z" transform="translate(-2.29578 -4.45999)"/><path class="cls-2" d="M93.12488,154.65234a4.46162,4.46162,0,0,1,0,6.51172,5.90839,5.90839,0,0,1-3.89551,1.17676H85.46472v4.30957h-.96V153.47656h4.72461A5.91356,5.91356,0,0,1,93.12488,154.65234Zm-.67774,5.90039a3.69277,3.69277,0,0,0,0-5.27929,4.88555,4.88555,0,0,0-3.21777-.93164H85.46472v7.13281h3.76465A4.91807,4.91807,0,0,0,92.44714,160.55273Z" transform="translate(-2.29578 -4.45999)"/><path class="cls-2" d="M103.81433,165.86914a6.43431,6.43431,0,0,1-2.45605-2.39941,6.93909,6.93909,0,0,1,0-6.8125,6.43433,6.43433,0,0,1,2.45605-2.39942,7.469,7.469,0,0,1,7.001-.00976,6.38174,6.38174,0,0,1,2.45605,2.38965,7.01187,7.01187,0,0,1,0,6.85058,6.37738,6.37738,0,0,1-2.45605,2.39063,7.47635,7.47635,0,0,1-7.001-.00977Zm6.49317-.76172a5.54756,5.54756,0,0,0,2.10742-2.08008,6.079,6.079,0,0,0,0-5.92773,5.54756,5.54756,0,0,0-2.10742-2.08008,6.34145,6.34145,0,0,0-5.99415,0,5.51885,5.51885,0,0,0-2.11718,2.08008,6.07895,6.07895,0,0,0,0,5.92773,5.51885,5.51885,0,0,0,2.11718,2.08008,6.34145,6.34145,0,0,0,5.99415,0Z" transform="translate(-2.29578 -4.45999)"/><path class="cls-2" d="M130.4071,166.65039l-3.14257-4.4043a9.51312,9.51312,0,0,1-1.28028.09473h-3.76367v4.30957h-.96V153.47656h4.72363a5.91,5.91,0,0,1,3.89551,1.17578,4.01869,4.01869,0,0,1,1.41211,3.26563,4.01656,4.01656,0,0,1-3.08691,4.12109l3.29394,4.61133Zm-4.42285-5.15625a4.8885,4.8885,0,0,0,3.21875-.93164,3.70442,3.70442,0,0,0,0-5.28906,4.88845,4.88845,0,0,0-3.21875-.93164h-3.76367v7.15234Z" transform="translate(-2.29578 -4.45999)"/></g><g class="cls-1"><path class="cls-2" d="M146.745,162.94238h-7.64063l-1.6748,3.708h-1.03516l6.05957-13.17383h.96l6.05957,13.17383h-1.03516Zm-.35743-.80859-3.46289-7.60352-3.44433,7.60352Z" transform="translate(-2.29578 -4.45999)"/></g><g class="cls-1"><path class="cls-2" d="M157.48816,154.3418H152.745v-.86524h10.44531v.86524h-4.74219v12.30859h-.96Z" transform="translate(-2.29578 -4.45999)"/><path class="cls-2" d="M178.41589,165.78516v.86523h-9.09082V153.47656h8.8086v.86524H170.285v5.19433h7.02051v.84766H170.285v5.40137Z" transform="translate(-2.29578 -4.45999)"/><path class="cls-2" d="M185.67957,153.47656h5.21386a7.632,7.632,0,0,1,3.6416.84668,6.19458,6.19458,0,0,1,2.47461,2.34278,6.96352,6.96352,0,0,1,0,6.79394,6.19018,6.19018,0,0,1-2.47461,2.34375,7.632,7.632,0,0,1-3.6416.84668h-5.21386Zm5.13867,12.3086a6.8816,6.8816,0,0,0,3.21777-.72461,5.1873,5.1873,0,0,0,2.14551-2.02344,6.24853,6.24853,0,0,0,0-5.94727,5.181,5.181,0,0,0-2.14551-2.02343,6.88148,6.88148,0,0,0-3.21777-.72461h-4.17871v11.44336Z" transform="translate(-2.29578 -4.45999)"/></g><g class="cls-1"><path class="cls-2" d="M37.94519,182.38184H30.30408l-1.67481,3.708H27.59412L33.65417,172.916h.95948l6.06006,13.17382H39.63855Zm-.35791-.8086-3.46289-7.60351-3.44385,7.60351Z" transform="translate(-2.29578 -4.45999)"/></g><g class="cls-1"><path class="cls-2" d="M48.68787,173.78125H43.94519V172.916H54.3905v.86523H49.64783v12.30859h-.96Z" transform="translate(-2.29578 -4.45999)"/></g><g class="cls-1"><path class="cls-2" d="M63.23767,173.78125H58.495V172.916H68.94031v.86523H64.19763v12.30859h-.96Z" transform="translate(-2.29578 -4.45999)"/></g><g class="cls-1"><path class="cls-2" d="M76.98523,185.30859a6.43433,6.43433,0,0,1-2.45606-2.39941,6.93585,6.93585,0,0,1,0-6.8125,6.43433,6.43433,0,0,1,2.45606-2.39941,7.46892,7.46892,0,0,1,7.001-.00977,6.3851,6.3851,0,0,1,2.45605,2.38965,7.01187,7.01187,0,0,1,0,6.85058,6.38067,6.38067,0,0,1-2.45605,2.39063,7.47635,7.47635,0,0,1-7.001-.00977Zm6.49268-.76171a5.549,5.549,0,0,0,2.10791-2.08008,6.079,6.079,0,0,0,0-5.92774,5.549,5.549,0,0,0-2.10791-2.08008,6.34145,6.34145,0,0,0-5.99415,0,5.52573,5.52573,0,0,0-2.11718,2.08008,6.079,6.079,0,0,0,0,5.92774,5.52573,5.52573,0,0,0,2.11718,2.08008,6.34153,6.34153,0,0,0,5.99415,0Z" transform="translate(-2.29578 -4.45999)"/><path class="cls-2" d="M103.577,186.08984l-3.14209-4.40429a9.50208,9.50208,0,0,1-1.27979.09472H95.391v4.30957h-.96V172.916h4.72412a5.9117,5.9117,0,0,1,3.89551,1.17578,4.02089,4.02089,0,0,1,1.41113,3.26562,4.0145,4.0145,0,0,1-3.08594,4.1211l3.293,4.61132Zm-4.42188-5.15625a4.887,4.887,0,0,0,3.21826-.93164,3.70555,3.70555,0,0,0,0-5.28906,4.88705,4.88705,0,0,0-3.21826-.93164H95.391v7.15234Z" transform="translate(-2.29578 -4.45999)"/><path class="cls-2" d="M122.47253,172.916v13.17382h-.79L112.705,174.64746v11.44238h-.96V172.916h.80957l8.958,11.44238V172.916Z" transform="translate(-2.29578 -4.45999)"/></g><g class="cls-1"><path class="cls-2" d="M139.92664,185.22461v.86523h-9.09082V172.916h8.80859v.86523h-7.84863v5.19434h7.0205v.84765h-7.0205v5.40137Z" transform="translate(-2.29578 -4.45999)"/></g><g class="cls-1"><path class="cls-2" d="M151.09167,181.55469v4.53515h-.96v-4.53515L144.8241,172.916h1.05371l4.76172,7.7539,4.76172-7.7539h.99707Z" transform="translate(-2.29578 -4.45999)"/></g><g class="cls-1"><path class="cls-2" d="M162.9823,185.68555a5.32146,5.32146,0,0,1-2.042-1.28907l.43261-.71582A5.097,5.097,0,0,0,163.245,184.876a6.71781,6.71781,0,0,0,2.47558.46093,4.72662,4.72662,0,0,0,2.8418-.71484,2.21926,2.21926,0,0,0,.959-1.86328,1.94463,1.94463,0,0,0-.50781-1.41113,3.36075,3.36075,0,0,0-1.26074-.80957,17.36972,17.36972,0,0,0-2.03223-.584,19.41122,19.41122,0,0,1-2.32422-.69629,3.69892,3.69892,0,0,1-1.4873-1.04394,2.78678,2.78678,0,0,1-.61133-1.8916,3.21559,3.21559,0,0,1,.50781-1.75977,3.4569,3.4569,0,0,1,1.55274-1.27051,6.35375,6.35375,0,0,1,2.60644-.4707,7.36453,7.36453,0,0,1,2.14551.32031,6.31022,6.31022,0,0,1,1.82519.86621l-.35742.77149a6.06717,6.06717,0,0,0-1.74023-.82813,6.55132,6.55132,0,0,0-1.87305-.28222,4.43634,4.43634,0,0,0-2.7666.73339,2.30266,2.30266,0,0,0-.94043,1.90137,1.94467,1.94467,0,0,0,.50781,1.41113,3.36071,3.36071,0,0,0,1.26075.80957,18.98816,18.98816,0,0,0,2.05175.60157,19.23771,19.23771,0,0,1,2.31446.69726,3.8073,3.8073,0,0,1,1.47754,1.02539,2.68879,2.68879,0,0,1,.61132,1.85352,3.121,3.121,0,0,1-.51757,1.75,3.51713,3.51713,0,0,1-1.58985,1.26172,6.559,6.559,0,0,1-2.63476.46972A7.674,7.674,0,0,1,162.9823,185.68555Z" transform="translate(-2.29578 -4.45999)"/></g></g><path class="cls-2" d="M123.07,87.56,111.78,80.1l.75,1.9a7.2902,7.2902,0,0,1,.6,2.88,5.06984,5.06984,0,0,1-1.25,3.06,4.60993,4.60993,0,0,1-3.89,1.61h-1.08v1.2h20.57A51.20705,51.20705,0,0,0,123.07,87.56Zm-9.83-50.27A13.16,13.16,0,0,0,106.62,42a8.91,8.91,0,0,0-2.15,5.51,9.39,9.39,0,0,0,1.15,4.7c1.12,2.08,3.55,4.31,7.32,6.71l14.48,9.4Zm-15-32.83H97.16q-.37,3.84-6,15.7L63.48,82.84a12.67,12.67,0,0,1-4.56,5,10.51,10.51,0,0,1-5.51,1.68H52.38v1.2H78.03v-1.2h-1a4.75,4.75,0,0,1-3.94-1.61,4.9,4.9,0,0,1-1.33-3,8.43021,8.43021,0,0,1,.6-2.94l6.26-14.7H94.99a20.39,20.39,0,0,1-2.94-5H80.62L92.97,32.79l2.68,6.82A21.79969,21.79969,0,0,1,98.21,37a23.70014,23.70014,0,0,1,12.41-5.39Z" transform="translate(-2.29578 -4.45999)"/><path class="cls-2" d="M135.77,73.78l-8.4-5.46,6.5,14.28a12.99987,12.99987,0,0,0,4.56,5.22,10.41008,10.41008,0,0,0,5.63,1.73h1.08v1.2H127.48a22.05048,22.05048,0,0,1,2.95,2.92,9.67,9.67,0,0,1,2.23,6.24,12.21,12.21,0,0,1-4.49,9.7q-4.5,3.84-12.53,3.83c-6.87,0-12.29-2-16.24-6.17a20.12,20.12,0,0,1-5.94-14.43,13.75944,13.75944,0,0,1,.13-1.92H92.51a27.74,27.74,0,0,0-3.71,14.73,16.09991,16.09991,0,0,0,.83,5.53c2.15,2.23,5.54,4,10.13,5.33a54.66965,54.66965,0,0,0,15,2q14.38,0,23.07-6.78t8.69-19.47Q146.56,80.84,135.77,73.78ZM132.3,32.43a139.12014,139.12014,0,0,0-16.3-1.2,35.09,35.09,0,0,0-5.35.38l2.59,5.68a21.77,21.77,0,0,1,6.95-1q7.67,0,12.29,3.77a12.33,12.33,0,0,1,4.61,10h1.2l1.56-17.63Z" transform="translate(-2.29578 -4.45999)"/><rect class="cls-3" x="47.84422" y="97.19" width="28.24" height="9.28"/></svg>