<?xml version="1.0" encoding="utf-8"?>
<!-- Generator: Adobe Illustrator 23.0.1, SVG Export Plug-In . SVG Version: 6.00 Build 0)  -->
<svg version="1.1" id="Layer_1" xmlns="http://www.w3.org/2000/svg" xmlns:xlink="http://www.w3.org/1999/xlink" x="0px" y="0px"
	 viewBox="0 0 560 352.7" style="enable-background:new 0 0 560 352.7;" xml:space="preserve">
<style type="text/css">
	.st0{fill:#042C38;}
	.st1{fill:none;stroke:#E8AB03;stroke-width:7.3547;stroke-linecap:round;}
	.st2{fill:none;stroke:#E8AB03;stroke-width:7.3549;}
	.st3{fill:#E8AB03;}
	.st4{fill:none;stroke:#E8AB03;stroke-width:7.3617;stroke-linecap:round;}
	.st5{fill:#FFFFFF;}
	.st6{fill:none;stroke:#E8AB03;stroke-width:7.3619;}
	.st7{fill:none;stroke:#666666;stroke-width:7.3499;stroke-linecap:round;}
	.st8{fill:#666666;}
	.st9{fill:none;stroke:#808080;stroke-width:7.3528;stroke-linecap:round;}
	.st10{fill:#808080;}
</style>
<g>
	<rect id="rect850_5_" x="33.4" y="34.4" class="st4" width="208.5" height="218.5"/>
	<g id="g848_5_" transform="translate(94.236651,94.607109)">
		<path id="path832_5_" class="st5" d="M125,16.6c-1.5,5.6-3.4,11-5.7,16.3c-0.3,0.8-0.1,1.7,0.1,2.6c3.7,12.6,7.3,25.3,10.9,37.9
			c-3.9-0.2-7.9,0.5-11.5,2.1c3.6,2.3,7.9,3.5,12.2,3.4c-2.9,1-4.3,4.9-2.8,7.6c1.6,2.8-0.9,6.4-4,7.2c-3.1,0.8-6.3-0.3-9.4-1.2
			c-3.1-0.9-6.5-1.8-9.4-0.4c4.7,2.6,10.3,3.4,15.5,2.5c-13,6.9-29.5-0.7-39.2-11.9c-9.6-11.1-15.1-25.3-24.1-37
			c6,12.5,12.6,24.6,19.8,36.4c-12.6,13.7-25.2,27.5-34.4,43.6c11.8-13.9,23.7-27.9,35.5-41.8c7,5.5,14.5,10.3,22.3,14.4
			c-5.2,9.7-9.4,19.9-12.5,30.5c5.2-9.7,10.3-19.4,15.5-29c7.2-0.6,14.4-1.8,21.5-3.6c1.2-0.3,2.5-0.7,3-1.8
			c3.9-7.3,5.1-15.9,3.5-24c-1.3-6.4-4.3-12.2-6.2-18.5c-3.1-10.1-3.1-21.2-0.1-31.3c2,3.3,7.7,3.2,9.5-0.2c1-1.9,4-1,5.8,0.2
			c6.5,4.3,12.3,9.4,17.4,15.3c5.3,6,9.7,12.9,12.3,20.5c7.4,22-2,46.6,3,69.3c2.3,10.5,7.6,20.2,9.3,30.8
			c1.6,10.6-2,23.4-12.1,27.2c6.5-9.7,7-23.1,1.3-33.3c-6,8.7-5.1,20.2-4.7,30.8c0.5,10.6-0.2,22.5-8,29.6c-0.9,0.8-1.9,1.6-3.1,1.7
			c-2.3,0.2-4.1-2-5.1-4.1c-4.1-8.5-2.6-18.6,0-27.6c2.7-9,6.5-17.9,6.9-27.3c0.5-9.4-3.4-19.9-12-23.7c-2.8-1.2-2.3-5.2-2-8.2
			c0.3-3-1.8-7.2-4.5-5.9c-10,4.7-19.9,9.5-29.9,14.2c-0.7,0.3-1.4,0.7-1.9,1.3c-1.7,2.1,0.9,4.9,2.1,7.4c2.5,4.9-0.8,10.6-4,15
			c-8.7,12.2-17.4,24.4-26,36.6c-2.5,3.5-5,7-8.6,9.3c-4.6,2.9-10.3,3.3-15.8,3.6c-0.5,4.3-0.9,8.7-1.4,13c-0.2,1.8-0.4,3.7-1.6,5.1
			c-1.4,1.6-3.7,2-5.9,2.2c-5.5,0.5-10.9,0.5-16.4,0c-1.4-0.1-2.9-0.4-3.9-1.4c-1.7-1.8-0.7-4.7,0.6-6.8
			c7.1-12.4,18.5-23.6,18.6-37.8c0-4-0.9-7.9-0.8-11.9c0.1-7.3,3.7-14.4,9.3-18.9c-7.7-1.7-15.4,1.8-23.2,2.8
			c-11.6,1.6-23.8-2.6-32-10.9c-1.8-1.9-5.1-1.3-7,0.4c-1.9,1.7-2.9,4.3-3.7,6.7c-2.9,8.3-5.8,16.7-8.8,25
			c-1.9,5.5-1.2,11.5-0.2,17.1c1,5.7,2.3,11.5,1.6,17.2c-0.8,5.7-4.1,11.6-9.6,13.3c-5.5,1.8-12.6-2.4-12.2-8.2
			c1.6-23.5,3.5-47,5.5-70.4c0.6-6.8,1.2-13.6,2.7-20.2c1.5-6.9,3.8-13.6,5.1-20.5c7-38.9,23.6-76,47.9-107.1c6,8,17.3,9.2,27.3,9.6
			c5.1,0.2,10.6,0.4,14.9-2.3c4.3-2.7,6.5-9.4,2.8-13c-1.8-1.7-4.4-2.3-6.8-2.8c-5.7-1.1-11.4-2.1-17.1-3.2c-0.1-2.7,2.1-5.1,4.7-6
			c2.6-0.9,5.4-0.7,8.1-0.4c20.5,2.2,40.9,6.3,59.9,14.2c-0.2,5.3,2.2,10.6,6.3,14c2.9,2.4,6.5,3.8,9.4,6.2c2.8,2.5,4.9,6.7,3,10
			C131.1,21.2,124.6,20.3,125,16.6 M85.2,146.2c-6.6,5.9-12.3,12.9-16.6,20.7c-4.2,7.5-10.6,14.5-11.2,23.2
			c4.5-3.8,8.9-7.6,13.4-11.4c3.3-2.8,6.7-5.7,9.2-9.3C84.6,162.8,85.9,154.2,85.2,146.2 M57.7,5.8c-6.6-2.1-13.6-2.9-20.5-2.4
			c-0.7,0.1-1.5,0.1-2,0.6c-1.1,1-0.6,2.8,0.1,4c4,7,11.9,10.9,19.3,14.2c1,0.4,2.1,0.9,3.1,0.5c1-0.4,1.4-2.1,0.4-2.5
			c-6.7-2.9-13-6.7-18.6-11.3c-1.1-0.9-2.3-2-2.4-3.4c7.2-0.7,14.5,0.2,21.3,2.8c0.6,0.2,1.2-0.7,0.9-1.3C59,6.3,58.3,6.1,57.7,5.8
			 M72.9,23.8c-0.2,0.7-0.1,1.4,0.1,2c0.6,2.1,2.2,3.7,4.1,4.7c1.9,1.1,4,1.6,6,2.1c1.6,0.4,3.5,0.7,4.7-0.4c0.9-0.9,1-2.4,0.5-3.6
			c-0.5-1.2-1.4-2.1-2.4-2.9c-1.4-1.1-2.8-2.2-4.4-3.1c-1.5-0.9-3-1.6-4.7-1.6C75.1,21.2,73.3,22.2,72.9,23.8 M116.8,87.6
			c0.6-0.2,1.1-0.5,1.5-0.8c1.4-1.2,1.9-3.2,1.3-4.9c-0.3-0.7-0.8-1.4-1.4-1.9c-2-1.6-5.3-1-6.6,1.2s-0.1,5.4,2.2,6.3
			C114.8,87.9,115.9,87.9,116.8,87.6"/>
		<path id="path834_5_" class="st5" d="M59.1-1.2c-4.5,1.9-9.5,1-14.3,0.1c-4.1-0.8-8.3-1.5-12.4-2.3c-3.5-0.7-7.7-1.8-8.8-5.3
			c-0.9-2.9,0.9-5.9,2.6-8.4c4.9-7.3,9.9-14.6,15.5-21.4c0.7-0.9,1.4-1.7,2.5-2.1c1-0.4,2.4-0.2,2.9,0.8c0.3,0.5,0.3,1.2,0.2,1.8
			c-0.6,5.9-5.1,10.7-6.9,16.4c-0.4,1.2-0.3,3,1,3.2c5.7,0.9,11.5,1.8,17.2,2.8c3,0.5,6.6,1.6,7.5,4.6c0.5,1.7-0.2,3.5-1.1,5
			C63.5-3.9,61.5-2.1,59.1-1.2"/>
		<path id="path836_5_" class="st5" d="M182.9-25c1.6,1,0.6,3.5-0.6,5c-4.7,5.6-10.2,10.5-16.4,14.5c-2.6,1.7-5.2,3.2-8.1,4.3
			c-10,4-21.2,3.1-31.9,2.2c-3.8-0.3-6.4-4-8.4-7.3c-0.5-0.9-1.1-1.9-0.6-2.8c0.5-1.1,2-1.1,3.2-1c13.6,1.3,27.9,3.7,40.7-1.4
			c6.9-2.7,12.7-7.5,18.3-12.3C180.1-24.8,181.6-25.8,182.9-25"/>
	</g>
	<path id="path897_5_" class="st6" d="M241.8,106.8v146.1h-67.3"/>
	<g>
		<path class="st5" d="M314.1,161.1V187h-5.3v-57h5.3v26.1 M314.1,161.1 M314.1,156.1"/>
		<path class="st5" d="M373.4,188.1c-5.4,0-9.2-1.2-11.5-3.6c-2.3-2.4-3.5-6.5-3.5-12.1v-20.7h5v19.8c0,4.5,0.8,7.7,2.3,9.6
			c1.5,1.9,4.1,2.9,7.6,2.9c3.6,0,6.1-1,7.7-2.9c1.5-1.9,2.3-5.1,2.3-9.6v-19.8h5v20.7c0,5.7-1.1,9.7-3.4,12.1
			C382.6,186.9,378.8,188.1,373.4,188.1z"/>
		<path class="st5" d="M402.6,187v-35.4h5v4.8c1.4-2,3.1-3.4,5-4.4c2-1,4.1-1.5,6.6-1.5c2.9,0,5.4,0.7,7.6,2
			c2.2,1.3,3.6,3.2,4.5,5.5c1.4-2.3,3.1-4.1,5.2-5.4c2.1-1.4,4.6-2,7.5-2c2.5,0,4.7,0.5,6.7,1.5c2,1,3.5,2.5,4.6,4.5
			c1.1,2,1.7,4.4,1.7,7.2V187h-5v-21.8c0-3.2-0.8-5.8-2.5-7.7c-1.7-1.9-3.9-2.8-6.7-2.8c-1.9,0-3.7,0.4-5.3,1.3
			c-1.6,0.9-2.8,2-3.7,3.3c-0.9,1.3-1.4,2.7-1.4,4.2V187h-5v-22.4c0-3.1-0.8-5.5-2.5-7.3c-1.7-1.8-3.9-2.7-6.6-2.7
			c-1.9,0-3.7,0.4-5.3,1.2c-1.6,0.8-2.9,1.9-3.8,3.2c-0.9,1.3-1.4,2.6-1.4,4v24H402.6z"/>
		<path class="st5" d="M488.3,188.1c-3.7,0-7-0.8-10-2.4c-3-1.6-5.3-3.8-7-6.6c-1.7-2.8-2.6-6.1-2.6-9.8c0-3.7,0.9-7,2.6-9.8
			c1.7-2.8,4.1-5,7-6.6c3-1.6,6.3-2.4,10-2.4s7,0.8,10,2.4c3,1.6,5.3,3.8,7,6.6c1.7,2.8,2.6,6.1,2.6,9.8c0,3.7-0.9,6.9-2.6,9.8
			c-1.7,2.8-4.1,5-7,6.6C495.3,187.3,491.9,188.1,488.3,188.1z M488.3,183.6c2.8,0,5.2-0.6,7.4-1.8c2.2-1.2,3.9-2.9,5.1-5.1
			c1.2-2.2,1.9-4.6,1.9-7.4c0-2.8-0.6-5.3-1.9-7.4c-1.2-2.2-2.9-3.8-5.1-5.1c-2.2-1.2-4.6-1.8-7.4-1.8s-5.2,0.6-7.4,1.8
			c-2.2,1.2-3.9,2.9-5.1,5.1s-1.9,4.6-1.9,7.4c0,2.8,0.6,5.3,1.9,7.4c1.2,2.2,2.9,3.9,5.1,5.1C483,183,485.5,183.6,488.3,183.6z"/>
		<path class="st5" d="M303.3,256.8l22.5-57h4.9l22.4,57h-5.7l-6.9-18.2H316l-7,18.2H303.3z M317.7,234h20.9l-10.5-27.3L317.7,234z"
			/>
		<path class="st5" d="M373.5,257.9c-2.9,0-5.5-0.7-7.7-2.1c-2.2-1.4-4-3.4-5.2-6l2.7-2.9c1.1,2.3,2.5,4,4.3,5.3
			c1.8,1.3,3.7,1.9,5.9,1.9c1.5,0,2.8-0.3,4-0.9c1.2-0.6,2.2-1.5,2.9-2.6c0.7-1.1,1.1-2.4,1.1-4c0-1.4-0.3-2.5-1-3.3
			c-0.7-0.8-1.7-1.5-3-2.1c-1.3-0.6-2.9-1.3-4.9-2c-1.5-0.6-2.9-1.3-4.4-2c-1.4-0.8-2.6-1.7-3.5-2.9c-0.9-1.2-1.4-2.6-1.4-4.4
			c0-1.8,0.5-3.4,1.5-4.9c1-1.4,2.3-2.5,4-3.4s3.6-1.2,5.8-1.2c2,0,3.8,0.4,5.6,1.3c1.7,0.9,3.3,2.1,4.7,3.6l-2.3,2.9
			c-2.1-2.8-4.8-4.2-7.9-4.2c-1.9,0-3.5,0.5-4.7,1.5c-1.2,1-1.8,2.3-1.8,4c0,1.2,0.4,2.2,1.1,2.9c0.8,0.8,1.8,1.5,3,2
			c1.2,0.6,2.6,1.1,4,1.7c2.1,0.8,3.9,1.6,5.4,2.4c1.5,0.8,2.7,1.8,3.6,3c0.9,1.2,1.3,2.9,1.3,4.9c0,2.4-0.6,4.4-1.7,6.2
			c-1.1,1.7-2.6,3.1-4.6,4S376,257.9,373.5,257.9z"/>
		<path class="st5" d="M407.7,257.9c-2.9,0-5.5-0.7-7.7-2.1c-2.2-1.4-4-3.4-5.2-6l2.7-2.9c1.1,2.3,2.5,4,4.3,5.3
			c1.8,1.3,3.7,1.9,5.9,1.9c1.5,0,2.8-0.3,4-0.9c1.2-0.6,2.2-1.5,2.9-2.6c0.7-1.1,1.1-2.4,1.1-4c0-1.4-0.3-2.5-1-3.3
			c-0.7-0.8-1.7-1.5-3-2.1s-2.9-1.3-4.9-2c-1.5-0.6-2.9-1.3-4.4-2c-1.4-0.8-2.6-1.7-3.5-2.9c-0.9-1.2-1.4-2.6-1.4-4.4
			c0-1.8,0.5-3.4,1.5-4.9c1-1.4,2.3-2.5,4-3.4s3.6-1.2,5.8-1.2c2,0,3.8,0.4,5.6,1.3c1.7,0.9,3.3,2.1,4.7,3.6l-2.3,2.9
			c-2.1-2.8-4.8-4.2-7.9-4.2c-1.9,0-3.5,0.5-4.7,1.5c-1.2,1-1.8,2.3-1.8,4c0,1.2,0.4,2.2,1.1,2.9c0.8,0.8,1.8,1.5,3,2
			c1.2,0.6,2.6,1.1,4,1.7c2.1,0.8,3.9,1.6,5.4,2.4s2.7,1.8,3.6,3c0.9,1.2,1.3,2.9,1.3,4.9c0,2.4-0.6,4.4-1.7,6.2
			c-1.1,1.7-2.6,3.1-4.6,4C412.5,257.4,410.3,257.9,407.7,257.9z"/>
		<path class="st5" d="M449.4,257.9c-3.7,0-7-0.8-9.9-2.5c-2.9-1.6-5.2-3.9-6.9-6.7s-2.5-6-2.5-9.5c0-2.6,0.5-5.1,1.4-7.4
			c1-2.3,2.3-4.3,4-6c1.7-1.7,3.7-3.1,5.9-4c2.3-1,4.7-1.5,7.2-1.5c3.5,0,6.6,0.8,9.4,2.3c2.7,1.5,4.9,3.6,6.5,6.3
			c1.6,2.7,2.4,5.8,2.5,9.3c0,0.3,0,0.5,0,0.7c0,0.2,0,0.4-0.1,0.6h-31.9c0,2.8,0.6,5.2,1.9,7.3c1.2,2.1,3,3.8,5.1,5
			s4.7,1.8,7.5,1.8c2.7,0,5.1-0.6,7.2-1.7c2.1-1.1,3.9-2.7,5.3-4.8l3.7,2c-1.7,2.7-4,4.9-6.9,6.4
			C456.1,257.1,452.9,257.9,449.4,257.9z M435.4,235.8H462c-0.3-2.2-1.1-4.2-2.3-5.9c-1.2-1.7-2.8-3-4.7-4c-1.9-1-4-1.5-6.2-1.5
			c-2.3,0-4.4,0.5-6.4,1.4c-1.9,1-3.5,2.3-4.7,4C436.4,231.6,435.7,233.5,435.4,235.8z"/>
		<path class="st5" d="M487.4,257.9c-2.6,0-4.7-0.9-6.2-2.7c-1.5-1.8-2.2-4.3-2.2-7.6v-22.5h-3.6v-3.8h3.6v-13.2h5v13.2h8.8v3.8
			h-8.8v22.2c0,2,0.4,3.5,1.1,4.5s1.8,1.6,3.2,1.6c1.4,0,2.6-0.4,3.6-1.1l1.3,4c-0.8,0.5-1.7,0.9-2.8,1.2
			C489.5,257.8,488.5,257.9,487.4,257.9z"/>
		<path class="st5" d="M513.6,257.9c-2.9,0-5.5-0.7-7.7-2.1c-2.2-1.4-4-3.4-5.2-6l2.7-2.9c1.1,2.3,2.5,4,4.3,5.3
			c1.8,1.3,3.7,1.9,5.9,1.9c1.5,0,2.8-0.3,4-0.9c1.2-0.6,2.2-1.5,2.9-2.6c0.7-1.1,1.1-2.4,1.1-4c0-1.4-0.3-2.5-1-3.3
			c-0.7-0.8-1.7-1.5-3-2.1s-2.9-1.3-4.9-2c-1.5-0.6-2.9-1.3-4.4-2c-1.4-0.8-2.6-1.7-3.5-2.9c-0.9-1.2-1.4-2.6-1.4-4.4
			c0-1.8,0.5-3.4,1.5-4.9c1-1.4,2.3-2.5,4-3.4s3.6-1.2,5.8-1.2c2,0,3.8,0.4,5.6,1.3c1.7,0.9,3.3,2.1,4.7,3.6l-2.3,2.9
			c-2.1-2.8-4.8-4.2-7.9-4.2c-1.9,0-3.5,0.5-4.7,1.5c-1.2,1-1.8,2.3-1.8,4c0,1.2,0.4,2.2,1.1,2.9c0.8,0.8,1.8,1.5,3,2
			c1.2,0.6,2.6,1.1,4,1.7c2.1,0.8,3.9,1.6,5.4,2.4c1.5,0.8,2.7,1.8,3.6,3c0.9,1.2,1.3,2.9,1.3,4.9c0,2.4-0.6,4.4-1.7,6.2
			c-1.1,1.7-2.6,3.1-4.6,4C518.4,257.4,516.1,257.9,513.6,257.9z"/>
		<path class="st3" d="M314.1,156.1 M314.1,161.1 M314.1,156.1l25.6-26.1h6.6l-27.6,28.2l30.6,28.8h-7.4l-27.7-25.9"/>
	</g>
</g>
</svg>
