<?xml version="1.0" encoding="UTF-8" standalone="no"?>
<svg
   xmlns:dc="http://purl.org/dc/elements/1.1/"
   xmlns:cc="http://creativecommons.org/ns#"
   xmlns:rdf="http://www.w3.org/1999/02/22-rdf-syntax-ns#"
   xmlns:svg="http://www.w3.org/2000/svg"
   xmlns="http://www.w3.org/2000/svg"
   style="fill:none;stroke:#000000;stroke-linecap:round;stroke-linejoin:round"
   version="1.1"
   id="Contours"
   x="0px"
   y="0px"
   width="1018.3035"
   height="1181.408"
   mViewBox="0.000000 0.000000 927.318665 1087.362671"
   xml:space="preserve"><metadata
   id="metadata843"><rdf:RDF><cc:Work
       rdf:about=""><dc:format>image/svg+xml</dc:format><dc:type
         rdf:resource="http://purl.org/dc/dcmitype/StillImage" /><dc:title></dc:title></cc:Work></rdf:RDF></metadata><defs
   id="defs841" />
<desc
   id="desc830">
</desc>


<rect
   style="fill:none;fill-opacity:1;stroke:#e8ab03;stroke-width:30.23622131;stroke-linecap:round;stroke-linejoin:round;stroke-miterlimit:4;stroke-dasharray:none;stroke-opacity:1"
   id="rect850"
   width="856.15869"
   height="897.56165"
   x="15.118111"
   y="15.118111" /><g
   id="g848"
   transform="translate(94.236651,94.607109)"
   style="fill:#042c38;fill-opacity:1"><path
     id="path832"
     d="m 682.8,236 c -6.3,22.8 -14.1,45.1 -23.4,66.8 -1.4,3.3 -0.5,7.1 0.5,10.5 15,51.9 29.9,103.9 44.9,155.8 -16.1,-1 -32.5,1.9 -47.3,8.5 14.8,9.4 32.5,14.4 50.1,13.9 -11.9,4.3 -17.8,20.2 -11.5,31.2 6.5,11.4 -3.9,26.4 -16.6,29.7 -12.7,3.4 -26,-1.1 -38.5,-4.9 -12.6,-3.9 -26.5,-7.2 -38.5,-1.8 19.3,10.5 42.1,14.1 63.7,10.1 -53.5,28.4 -121.2,-3 -160.9,-48.7 -39.6,-45.7 -62.1,-103.9 -98.9,-152 24.5,51.2 51.7,101.2 81.5,149.5 -51.6,56.1 -103.6,112.9 -141.4,179 48.6,-57.2 97.2,-114.4 145.9,-171.6 28.7,22.4 59.5,42.3 91.7,59.3 -21.3,39.9 -38.6,81.9 -51.4,125.2 21.2,-39.7 42.3,-79.5 63.5,-119.2 29.7,-2.3 59.2,-7.2 88.1,-14.9 4.8,-1.2 10.1,-3 12.4,-7.4 16,-29.8 21.1,-65.3 14.4,-98.4 -5.3,-26.1 -17.6,-50.3 -25.3,-75.8 -12.6,-41.6 -12.7,-86.9 -0.3,-128.6 8.2,13.5 31.6,13 39.2,-0.9 4.3,-7.9 16.3,-4.2 23.8,0.8 26.5,17.6 50.6,38.8 71.5,62.8 21.6,24.8 40,53 50.4,84.2 30.4,90.5 -8.4,191.3 12.2,284.6 9.5,43 31.4,82.9 38.1,126.4 6.6,43.6 -8.4,96.1 -49.7,111.6 26.7,-39.9 28.9,-94.9 5.5,-136.8 -24.6,35.9 -21.1,83.1 -19.2,126.5 2,43.4 -0.8,92.3 -32.8,121.7 -3.6,3.3 -7.8,6.4 -12.7,6.9 -9.5,0.9 -17,-8.1 -21.1,-16.7 -16.7,-34.9 -10.8,-76.2 0.2,-113.3 10.9,-37.1 26.6,-73.4 28.5,-112 2,-38.6 -13.8,-81.6 -49.1,-97.2 -11.3,-5.1 -9.4,-21.2 -8.1,-33.5 1.3,-12.3 -7.2,-29.5 -18.4,-24.2 -40.9,19.5 -81.8,38.9 -122.6,58.3 -2.8,1.4 -5.7,2.7 -7.6,5.2 -6.9,8.8 3.7,20.2 8.8,30.2 10.2,20 -3.3,43.5 -16.3,61.8 -35.7,50.2 -71.3,100.3 -106.9,150.4 -10.1,14.2 -20.6,28.8 -35.4,38.1 -18.9,11.9 -42.4,13.6 -64.7,14.8 -2,17.8 -3.9,35.6 -5.9,53.3 -0.8,7.5 -1.8,15.4 -6.7,21 -5.8,6.6 -15.3,8.2 -24.1,9 -22.4,2.2 -44.9,2.1 -67.3,-0.1 -5.8,-0.6 -12.1,-1.6 -16,-5.9 -6.9,-7.4 -2.7,-19.2 2.3,-28 29,-50.8 75.8,-96.8 76.2,-155.3 0.1,-16.3 -3.5,-32.5 -3.3,-48.8 0.5,-29.8 15,-59.1 38.4,-77.7 -31.5,-6.8 -63.4,7.3 -95.4,11.6 -47.5,6.4 -97.7,-10.7 -131.5,-44.7 -7.5,-7.6 -21,-5.4 -28.9,1.6 -7.9,7.1 -11.8,17.6 -15.3,27.6 -12,34.2 -24,68.4 -36,102.5 -7.9,22.4 -5,47.1 -0.8,70.4 4.1,23.4 9.6,47.1 6.5,70.6 -3.1,23.6 -16.9,47.5 -39.5,54.7 C 29.2,1071 0,1053.7 1.7,1030 8.4,933.6 16,837.1 24.4,740.8 c 2.5,-27.9 5,-55.8 10.9,-83.1 6.1,-28.3 15.8,-55.8 20.9,-84.4 28.8,-159.7 97,-312.1 196.9,-440 24.6,33 71.2,37.7 112.3,39.6 21,0.9 43.4,1.5 61.2,-9.6 17.8,-11.1 26.7,-38.7 11.7,-53.4 -7.3,-7.1 -18,-9.3 -28,-11.3 -23.3,-4.4 -46.7,-8.8 -70.1,-13.3 -0.6,-11.1 8.6,-21 19.2,-24.7 10.5,-3.8 22.1,-2.8 33.3,-1.6 84.1,9 168.1,25.7 246.1,58.5 -0.8,21.7 9,43.6 25.7,57.4 12,9.8 26.9,15.5 38.7,25.5 11.7,10.1 20,27.4 12.5,41 -7.5,13.5 -34.2,10 -32.9,-5.4 M 519.4,768.2 c -27.2,24.3 -50.4,53.1 -68.3,84.9 -17.4,31 -43.5,59.6 -45.8,95.1 18.3,-15.5 36.7,-31.1 55,-46.7 13.6,-11.6 27.4,-23.3 37.7,-38 19.1,-27.2 24.3,-62.2 21.4,-95.3 M 406.5,191.8 c -27,-8.8 -55.7,-12.1 -84,-9.9 -3,0.3 -6.1,0.6 -8.3,2.6 -4.5,4 -2.4,11.3 0.5,16.5 16.6,28.9 48.7,44.8 79.3,58.2 4,1.7 8.6,3.5 12.7,1.9 4.1,-1.6 5.7,-8.5 1.7,-10.3 -27.4,-12 -53.2,-27.7 -76.4,-46.6 -4.6,-3.7 -9.4,-8.2 -9.8,-14.1 29.5,-2.9 59.6,1 87.3,11.5 2.6,1 4.8,-2.8 3.6,-5.3 -1.1,-2.5 -4,-3.6 -6.6,-4.5 m 62.7,73.8 c -0.7,2.8 -0.4,5.6 0.4,8.3 2.4,8.5 9.1,15.2 16.7,19.5 7.7,4.4 16.3,6.6 24.8,8.7 6.6,1.7 14.4,3 19.3,-1.7 3.8,-3.7 4.2,-9.9 2.1,-14.8 -2,-4.8 -5.9,-8.6 -10,-12 -5.7,-4.7 -11.7,-8.9 -18.1,-12.6 -6,-3.5 -12.5,-6.6 -19.5,-6.5 -6.9,0.2 -14.1,4.4 -15.7,11.1 m 180.3,262.1 c 2.3,-0.7 4.4,-1.9 6.2,-3.4 5.7,-4.8 7.8,-13.3 5.2,-20.2 -1.2,-3 -3.1,-5.7 -5.6,-7.6 -8.1,-6.6 -21.8,-4 -27,5 -5.2,9 -0.6,22.1 9.1,25.9 3.9,1.5 8.2,1.6 12.1,0.3"
     style="fill:#042c38;fill-opacity:1;stroke:none" /><path
     id="path834"
     d="m 412.3,163.1 c -18.4,7.6 -39.2,4.1 -58.8,0.5 -16.9,-3.1 -33.9,-6.2 -50.9,-9.3 -14.5,-2.7 -31.6,-7.5 -36.2,-21.6 -3.8,-11.8 3.5,-24.2 10.5,-34.5 20.3,-29.9 40.6,-59.8 63.5,-87.7 2.8,-3.5 5.9,-7.1 10.1,-8.8 4.1,-1.7 9.7,-0.8 11.9,3.1 1.3,2.2 1.3,4.9 1,7.4 -2.3,24.4 -20.9,44 -28.2,67.4 -1.5,5 -1.1,12.3 4,13.1 23.6,3.5 47.2,7.3 70.7,11.4 12.5,2.2 27.3,6.5 30.7,18.7 2,6.9 -0.7,14.4 -4.6,20.4 -5.6,8.8 -14,15.9 -23.7,19.9"
     style="fill:#042c38;fill-opacity:1;stroke:none" /><path
     id="path836"
     d="m 920.6,65 c 6.7,4.1 2.5,14.4 -2.6,20.4 -19.3,23 -42,43.1 -67.2,59.5 -10.5,6.9 -21.5,13.1 -33.1,17.8 -41,16.5 -87,12.9 -131,9 -15.8,-1.4 -26.4,-16.3 -34.7,-29.8 -2.2,-3.6 -4.5,-8 -2.6,-11.7 2.2,-4.4 8.3,-4.6 13.2,-4.1 56,5.4 114.7,15.1 167,-5.7 28.2,-11.2 52.3,-30.6 75.2,-50.5 4.5,-3.9 10.8,-8 15.8,-4.9"
     style="fill:#042c38;fill-opacity:1;stroke:none" /></g>

<path
   style="fill:none;stroke:#e8ab03;stroke-width:30.23622131;stroke-linecap:butt;stroke-linejoin:miter;stroke-miterlimit:4;stroke-dasharray:none;stroke-opacity:1"
   d="M 871.27675,312.60412 V 912.67977 H 594.70285"
   id="path897" /></svg>