<svg xmlns="http://www.w3.org/2000/svg" xmlns:xlink="http://www.w3.org/1999/xlink" viewBox="0 0 611.45417 452.13153"><defs><style>.cls-1{fill:url(#linear-gradient);}.cls-2{fill:#80ea96;}.cls-3{fill:#119aa1;}.cls-4{fill:#17565e;}.cls-5{fill:none;}.cls-6{fill:#efefef;}.cls-7{fill:#3f3d56;}.cls-8{fill:#2f2e41;}.cls-9{fill:#af8775;}.cls-10{fill:#63627c;}</style><linearGradient id="linear-gradient" x1="140.12576" y1="-69.37411" x2="380.74353" y2="347.38809" gradientUnits="userSpaceOnUse"><stop offset="0" stop-color="#fff" stop-opacity="0.2"/><stop offset="0.32098" stop-color="#fff" stop-opacity="0.2"/><stop offset="0.50916" stop-color="#fff" stop-opacity="0.3"/><stop offset="0.72628" stop-color="#fff" stop-opacity="0.2"/><stop offset="1" stop-color="#fff" stop-opacity="0.2"/></linearGradient></defs><title>LandingGraphic</title><g id="Layer_2" data-name="Layer 2"><g id="Layer_1-2" data-name="Layer 1"><rect class="cls-1" x="1.29535" y="1.29535" width="522.67239" height="283.03356"/><circle class="cls-2" cx="296.88631" cy="160.32179" r="67.60995"/><circle class="cls-3" cx="257.1263" cy="176.90938" r="84.19753"/><path class="cls-4" d="M268.13672,246.85837a84.84537,84.84537,0,1,1,84.84521-84.84552A84.94136,84.94136,0,0,1,268.13672,246.85837Zm0-168.39538a83.55,83.55,0,1,0,83.54986,83.55017v-.00031A83.64448,83.64448,0,0,0,268.13672,78.463Z"/><path class="cls-5" d="M525.26308,285.62425H0V0H525.26308ZM1.29535,284.32891H523.96773V1.29535H1.29535Z"/><rect class="cls-6" x="17.4872" y="22.66863" width="115.28586" height="11.65812"/><rect class="cls-6" x="190.41598" y="22.66863" width="115.28585" height="11.65812"/><rect class="cls-6" x="363.34476" y="22.66863" width="115.28585" height="11.65812"/><path class="cls-7" d="M140.54512,29.14531H23.96391V16.19184H140.54512ZM25.25926,27.85H139.24977V17.48719H25.25926Z"/><path class="cls-7" d="M313.4739,29.14531H196.8927V16.19184H313.4739ZM198.188,27.85H312.17855V17.48719H198.188Z"/><path class="cls-7" d="M486.40268,29.14531H369.82148V16.19184h116.5812ZM371.11682,27.85H485.10733V17.48719H371.11682Z"/><rect class="cls-8" x="75.43687" y="442.19091" width="536.0173" height="1.65437"/><polygon class="cls-7" points="254.859 313.15 295.663 234.134 306.673 240.611 260.041 316.388 254.859 313.15"/><path class="cls-3" d="M231.21938,330.31348s7.52053,5.909,8.37426-6.734a14.50178,14.50178,0,0,1,5.2761-10.42108c3.40526-2.72075,8.30582-4.58159,14.1996-.97985a12.22834,12.22834,0,0,1,6.138,11.9984,18.43935,18.43935,0,0,1-9.21812,14.41338c-5.84669,3.47049-15.07613,6.08261-24.76985-2.44787C231.21938,336.14254,225.39032,329.6658,231.21938,330.31348Z"/><circle class="cls-9" cx="303.36815" cy="127.44619" r="15.71655"/><path class="cls-9" d="M295.09628,134.89086s4.136,21.50687,2.48155,25.64278,23.16124-1.65436,23.16124-1.65436-4.96313-21.50688-4.136-26.47S295.09628,134.89086,295.09628,134.89086Z"/><polygon class="cls-9" points="267.799 209.338 269.453 231.671 277.664 266.747 280.207 276.34 284.343 261.451 280.207 227.536 278.802 212.267 267.799 209.338"/><path class="cls-9" d="M354.65377,206.029v23.16124s-2.48155,29.77872-7.44469,37.22343-6.6175-29.77872-6.6175-29.77872l3.88909-27.29718Z"/><path class="cls-8" d="M281.0341,277.99429s-4.136,4.96314-.82719,55.42153-1.65436,86.85464,9.09905,86.85464c0,0-3.30873,10.75342,5.79032,11.58064s13.235,1.65436,14.06219-.82718,2.48155-14.06219,0-14.06219c0,0,0,3.30873,1.65437-9.92624s1.65436-76.10122,5.79032-84.37309l13.235,30.60593s0,14.06219,2.48155,20.67969,6.61751,44.66807,6.61751,44.66807l-.82719,5.79032s19.85247,3.30873,20.67969,0,.82719-8.27187,0-9.92623-.82718-1.65437.82719-4.96314,1.65436-5.79032.82718-8.27187-.82718-56.24871-.82718-56.24871-1.65441-65.34781-11.58064-68.65658S281.0341,277.99429,281.0341,277.99429Z"/><path class="cls-8" d="M291.78755,425.2336l-6.6175,11.5806s-10.33985-3.72235-8.27187,5.79032a165.29992,165.29992,0,0,0,30.19236-.41358s4.136,1.65437,4.96313-.82718-2.068-11.167-4.54952-11.167S291.78755,425.2336,291.78755,425.2336Z"/><path class="cls-8" d="M339.7644,421.92482s-6.6175,14.88938-4.136,15.71656,24.81561,4.13595,26.47,4.96314,9.92623,1.65436,10.75345-3.30874-4.136-6.6175-4.136-6.6175-9.099-1.65436-11.58064-9.92623S339.7644,421.92482,339.7644,421.92482Z"/><path class="cls-10" d="M322.39348,156.39775s-22.33406-4.13594-27.2972,0-25.64278,12.4078-25.64278,16.54374,10.75341,44.66809,10.75341,44.66809-5.79032,61.21185,0,62.86622,15.71656-3.30873,27.2972,2.48155,44.66807-4.96314,44.66807-4.96314-12.40782-52.94-9.09905-62.86624,5.79032-43.84091,5.79032-43.84091S334.80126,156.39775,322.39348,156.39775Z"/><path class="cls-10" d="M275.24378,170.45994l-5.79032,1.65436s-12.40783,38.87782-7.44469,40.53218,19.02533,4.96312,20.67969,4.96312S275.24378,170.45994,275.24378,170.45994Z"/><path class="cls-10" d="M335.62844,166.324l13.235,4.96312s17.37092,32.26029,13.235,36.39625-22.33406,8.27186-22.33406,8.27186Z"/><path class="cls-8" d="M302.89078,108.034a8.88338,8.88338,0,0,0-3.9315.17358,10.25079,10.25079,0,0,0-2.794,1.83282,32.70247,32.70247,0,0,1-4.77715,3.165,11.147,11.147,0,0,0-3.717,2.60552,7.909,7.909,0,0,0-1.04907,1.98577,23.79559,23.79559,0,0,0-1.25111,12.95084,5.95244,5.95244,0,0,0,.551,1.77831c.85971,1.584,2.75858,2.20822,4.35815,3.03856,3.037,1.57647,5.339,4.231,7.82992,6.57708a15.30692,15.30692,0,0,0,3.09364,2.38415c3.55359,1.93748,7.89708,1.30543,11.88614.62032a2.142,2.142,0,0,0,2.13794-2.14619l-.00008-.01631,3.14867-14.16186a23.10488,23.10488,0,0,0,.807-6.44078c-.21968-3.4378-2.08083-8.2-4.60384-10.64192C311.63971,108.89357,306.73349,108.44081,302.89078,108.034Z"/><ellipse class="cls-3" cx="238.34381" cy="441.06559" rx="22.66857" ry="1.29535"/><ellipse class="cls-3" cx="233.16242" cy="443.65628" rx="22.66857" ry="1.29535"/><ellipse class="cls-3" cx="210.49386" cy="435.8842" rx="12.30579" ry="0.70317"/><ellipse class="cls-3" cx="254.53564" cy="451.42836" rx="12.30579" ry="0.70317"/></g></g></svg>