<svg xmlns="http://www.w3.org/2000/svg" xmlns:xlink="http://www.w3.org/1999/xlink" viewBox="0 0 142 109.66488"><defs><style>.cls-1{fill:#198d96;}.cls-2{fill:url(#linear-gradient);}.cls-3{fill:#1e707a;}.cls-4{fill:url(#linear-gradient-2);}</style><linearGradient id="linear-gradient" x1="92.38289" y1="36.10642" x2="141.34074" y2="36.10642" gradientUnits="userSpaceOnUse"><stop offset="0" stop-color="#13b2ba"/><stop offset="1" stop-color="#2fcc88"/></linearGradient><linearGradient id="linear-gradient-2" x1="0.59091" y1="36.11132" x2="80.14774" y2="36.11132" gradientUnits="userSpaceOnUse"><stop offset="0.25977" stop-color="#1e707a"/><stop offset="1" stop-color="#13b2ba"/></linearGradient></defs><title>Logo_withText</title><g id="Layer_2" data-name="Layer 2"><g id="Layer_1-2" data-name="Layer 1"><path class="cls-1" d="M23.3149,85.66215A2.65752,2.65752,0,0,1,24.02,87.57181v19.54653a2.41913,2.41913,0,0,1-.6537,1.7895,2.32533,2.32533,0,0,1-1.72076.65417,2.27938,2.27938,0,0,1-1.68616-.65417,2.41726,2.41726,0,0,1-.65369-1.7895V94.97061l-4.88688,9.1883a3.82941,3.82941,0,0,1-1.04928,1.30788,2.41631,2.41631,0,0,1-2.70179,0,3.71425,3.71425,0,0,1-1.06658-1.30788L4.71432,95.14269v11.97565a2.43143,2.43143,0,0,1-.6537,1.77219,2.29455,2.29455,0,0,1-1.72077.67148,2.27936,2.27936,0,0,1-1.68615-.65417A2.41722,2.41722,0,0,1,0,107.11834V87.57181a2.65377,2.65377,0,0,1,.70561-1.90966,2.42737,2.42737,0,0,1,1.84093-.74022A2.71075,2.71075,0,0,1,5.05847,86.6773l6.98591,13.24892L18.99617,86.6773a2.78283,2.78283,0,0,1,2.47732-1.75537A2.42989,2.42989,0,0,1,23.3149,85.66215Z"/><path class="cls-1" d="M42.18947,109.02848a10.56112,10.56112,0,0,1-3.81981-1.8068,2.41114,2.41114,0,0,1-.73973-.80847,2.53733,2.53733,0,0,1,.30954-2.59845,1.55522,1.55522,0,0,1,1.22184-.6537,2.33763,2.33763,0,0,1,.73973.12017,4.69241,4.69241,0,0,1,.87769.43019,11.564,11.564,0,0,0,2.994,1.35931,12.1621,12.1621,0,0,0,3.33819.43019,6.56579,6.56579,0,0,0,3.47565-.757,2.41515,2.41515,0,0,0,1.20454-2.16778,1.95168,1.95168,0,0,0-1.1185-1.72076,14.40358,14.40358,0,0,0-3.97506-1.23867,22.013,22.013,0,0,1-5.11038-1.58329,6.617,6.617,0,0,1-2.78735-2.30573,6.08128,6.08128,0,0,1-.8772-3.33818,6.50417,6.50417,0,0,1,1.256-3.90585A8.32744,8.32744,0,0,1,42.65427,85.765a12.26784,12.26784,0,0,1,5.007-.98055,12.79926,12.79926,0,0,1,8.0525,2.4432,2.74328,2.74328,0,0,1,.74022.84308,2.25748,2.25748,0,0,1,.22351,1.04976,2.32331,2.32331,0,0,1-.53354,1.51408,1.55364,1.55364,0,0,1-1.22135.65369,2.33127,2.33127,0,0,1-.70561-.10286,4.89393,4.89393,0,0,1-.91181-.44749,14.5001,14.5001,0,0,0-2.59845-1.342,8.64114,8.64114,0,0,0-3.01086-.4475,5.872,5.872,0,0,0-3.30406.80847,2.53734,2.53734,0,0,0-1.204,2.21969,1.99426,1.99426,0,0,0,.46432,1.35931,3.85511,3.85511,0,0,0,1.54868.94642,23.57975,23.57975,0,0,0,3.08007.86038,17.11794,17.11794,0,0,1,6.72781,2.64988,5.35067,5.35067,0,0,1,2.04761,4.43938,6.45589,6.45589,0,0,1-1.22184,3.88854,7.879,7.879,0,0,1-3.44153,2.61527,13.23758,13.23758,0,0,1-5.1445.92912A19.23614,19.23614,0,0,1,42.18947,109.02848Z"/><path class="cls-1" d="M59.499,108.70163a2.51223,2.51223,0,0,1-.65369-1.85823V87.57181a2.60483,2.60483,0,0,1,.72243-1.927,3.02277,3.02277,0,0,1,3.92315,0,2.60513,2.60513,0,0,1,.72291,1.927v17.41288h8.80954q2.51193,0,2.51193,2.20238,0,2.168-2.51193,2.16826H61.35724A2.51224,2.51224,0,0,1,59.499,108.70163Z"/><path class="cls-1" d="M98.57475,107.18707a2.18336,2.18336,0,0,1-.69647,1.63473,2.2357,2.2357,0,0,1-1.59531.671,1.938,1.938,0,0,1-1.11513-.361,2.24638,2.24638,0,0,1-.80511-1.08437l-1.64146-4.06061H82.22173l-1.64145,4.06061a2.28731,2.28731,0,0,1-.78973,1.08437,1.915,1.915,0,0,1-1.13051.361,2.28768,2.28768,0,0,1-1.61069-.671,2.16037,2.16037,0,0,1-.71234-1.63473,3.01913,3.01913,0,0,1,.248-1.10119L84.94756,86.574a2.611,2.611,0,0,1,1.02188-1.256,2.6865,2.6865,0,0,1,2.94212.01683A2.93739,2.93739,0,0,1,89.96469,86.574l8.36252,19.51192A3.02739,3.02739,0,0,1,98.57475,107.18707ZM83.86319,99.92622h7.21663l-3.59293-8.94749Z"/><path class="cls-1" d="M103.76733,109.02848a10.561,10.561,0,0,1-3.81981-1.8068,2.41129,2.41129,0,0,1-.73974-.80847,2.53737,2.53737,0,0,1,.30955-2.59845,1.55522,1.55522,0,0,1,1.22184-.6537,2.33768,2.33768,0,0,1,.73973.12017,4.6927,4.6927,0,0,1,.87769.43019,11.5637,11.5637,0,0,0,2.994,1.35931,12.1621,12.1621,0,0,0,3.33819.43019,6.56579,6.56579,0,0,0,3.47565-.757,2.41514,2.41514,0,0,0,1.20453-2.16778,1.95167,1.95167,0,0,0-1.11849-1.72076,14.40381,14.40381,0,0,0-3.97506-1.23867,22.013,22.013,0,0,1-5.11038-1.58329,6.61691,6.61691,0,0,1-2.78735-2.30573,6.08128,6.08128,0,0,1-.8772-3.33818,6.50417,6.50417,0,0,1,1.256-3.90585,8.32744,8.32744,0,0,1,3.47566-2.71861,12.26784,12.26784,0,0,1,5.007-.98055,12.79926,12.79926,0,0,1,8.0525,2.4432,2.74341,2.74341,0,0,1,.74022.84308,2.2576,2.2576,0,0,1,.22351,1.04976,2.32331,2.32331,0,0,1-.53354,1.51408,1.55365,1.55365,0,0,1-1.22135.65369,2.33127,2.33127,0,0,1-.70561-.10286,4.89425,4.89425,0,0,1-.91182-.44749,14.49971,14.49971,0,0,0-2.59844-1.342,8.64114,8.64114,0,0,0-3.01086-.4475,5.872,5.872,0,0,0-3.30406.80847,2.53734,2.53734,0,0,0-1.20405,2.21969,1.99426,1.99426,0,0,0,.46432,1.35931,3.85511,3.85511,0,0,0,1.54868.94642,23.57975,23.57975,0,0,0,3.08007.86038,17.11781,17.11781,0,0,1,6.7278,2.64988,5.35065,5.35065,0,0,1,2.04762,4.43938,6.45589,6.45589,0,0,1-1.22184,3.88854,7.879,7.879,0,0,1-3.44153,2.61527,13.23758,13.23758,0,0,1-5.1445.92912A19.23614,19.23614,0,0,1,103.76733,109.02848Z"/><path class="cls-1" d="M141.27757,85.64484A2.60483,2.60483,0,0,1,142,87.57181v19.30572a2.66355,2.66355,0,0,1-.72243,1.94427,2.88165,2.88165,0,0,1-3.83711.0173,2.68651,2.68651,0,0,1-.70561-1.96157V99.16918h-11.184v7.70835a2.66187,2.66187,0,0,1-.72292,1.94427,2.52554,2.52554,0,0,1-1.89236.74021,2.60549,2.60549,0,0,1-1.92744-.72291,2.65106,2.65106,0,0,1-.72244-1.96157V87.57181a2.48692,2.48692,0,0,1,2.64988-2.64988,2.54552,2.54552,0,0,1,1.90967.72291,2.6411,2.6411,0,0,1,.70561,1.927v7.33007h11.184V87.57181a2.63909,2.63909,0,0,1,.70561-1.927,2.54441,2.54441,0,0,1,1.91014-.72291A2.60324,2.60324,0,0,1,141.27757,85.64484Z"/><path class="cls-2" d="M141.34074,63.03324a9.16894,9.16894,0,0,1-17.1475,4.52862H124.181l-.08569-.15912-30.513-53.69453A9.17026,9.17026,0,1,1,109.53039,4.651h.01225l.08568.15912,30.513,53.69452A9.126,9.126,0,0,1,141.34074,63.03324Z"/><circle class="cls-3" cx="9.7665" cy="63.03324" r="9.1796"/><path class="cls-4" d="M80.1384,9.18555V46.62779c0,5.34781.021,10.6961,0,16.04388a9.18325,9.18325,0,1,1-18.3592.36547c-.1064-6.15711,0-12.3247,0-18.48283V43.9089l-8.357,14.7-4.36133,7.67159A11.59247,11.59247,0,0,1,44.72964,71.105,9.252,9.252,0,0,1,32.839,68.2823c-.69113-.972-1.23684-2.10031-1.82551-3.136l-8.4271-14.82694L2.87474,15.638a19.934,19.934,0,0,1-1.86736-3.69269A9.2686,9.2686,0,0,1,8.73933.0623c3.9955-.44372,7.348,1.72817,9.27506,5.083.94314,1.64191,1.871,3.29281,2.80644,4.93911L39.89188,43.64784l.46826.8241,11.025-19.40309C55.21529,18.32811,58.95789,11.52831,62.8793,4.8401A9.33559,9.33559,0,0,1,72.64462.16063,9.26971,9.26971,0,0,1,80.1384,9.18555Z"/></g></g></svg>