<svg xmlns="http://www.w3.org/2000/svg" xmlns:xlink="http://www.w3.org/1999/xlink" viewBox="0 0 124.69879 124.69879"><defs><style>.cls-1{fill:#303030;}.cls-2{fill:url(#linear-gradient);}.cls-3{fill:#1e707a;}.cls-4{fill:url(#linear-gradient-2);}</style><linearGradient id="linear-gradient" x1="77.47266" y1="62.34768" x2="112.04011" y2="62.34768" gradientUnits="userSpaceOnUse"><stop offset="0" stop-color="#13b2ba"/><stop offset="1" stop-color="#2fcc88"/></linearGradient><linearGradient id="linear-gradient-2" x1="12.66151" y1="62.35114" x2="68.83384" y2="62.35114" gradientUnits="userSpaceOnUse"><stop offset="0.25977" stop-color="#1e707a"/><stop offset="1" stop-color="#13b2ba"/></linearGradient></defs><title>favicon</title><g id="Layer_2" data-name="Layer 2"><g id="Layer_1-2" data-name="Layer 1"><circle class="cls-1" cx="62.3494" cy="62.3494" r="62.3494"/><path class="cls-2" d="M112.04011,81.35978a6.47387,6.47387,0,0,1-12.10726,3.1975H99.9242l-.0605-.11235L78.31954,46.53308a6.47481,6.47481,0,1,1,11.26038-6.395h.00865l.0605.11235,21.54416,37.91185A6.44353,6.44353,0,0,1,112.04011,81.35978Z"/><circle class="cls-3" cx="19.14008" cy="81.35978" r="6.4814"/><path class="cls-4" d="M68.82725,43.33978V69.77646c0,3.7759.01484,7.55214,0,11.328a6.484,6.484,0,1,1-12.9628.258c-.07512-4.34732,0-8.702,0-13.05009v-.4557L49.96387,78.23589l-3.07938,5.41665A8.185,8.185,0,0,1,43.82634,87.059a6.5325,6.5325,0,0,1-8.39557-1.993c-.488-.68627-.8733-1.483-1.28893-2.21425l-5.95009-10.4688L14.274,47.8956a14.07431,14.07431,0,0,1-1.31848-2.60727,6.54424,6.54424,0,0,1,5.45927-8.39016,6.65965,6.65965,0,0,1,6.5488,3.58892c.66592,1.15929,1.32105,2.32493,1.98153,3.48733l13.46541,23.698.33062.58187,7.78438-13.69986c2.70433-4.75941,5.34685-9.5605,8.11562-14.28282a6.47839,6.47839,0,0,1,12.18606,3.06817Z"/></g></g></svg>